<svg xmlns="http://www.w3.org/2000/svg" xmlns:xlink="http://www.w3.org/1999/xlink" width="457px" height="264px" version="1.1"><defs/><g transform="translate(0.5,0.5)"><ellipse cx="112" cy="129" rx="90" ry="90" fill="#ffffff" stroke="#000000" pointer-events="none"/><ellipse cx="112" cy="39" rx="6.25" ry="6.25" fill="#000000" stroke="#000000" pointer-events="none"/><ellipse cx="188" cy="175" rx="6.25" ry="6.25" fill="#000000" stroke="#000000" pointer-events="none"/><ellipse cx="38" cy="175" rx="6.25" ry="6.25" fill="#000000" stroke="#000000" pointer-events="none"/><path d="M 426 174 L 426 174" fill="none" stroke="#000000" stroke-miterlimit="10" pointer-events="none"/><path d="M 426 174 L 426 174 L 426 174 L 426 174 Z" fill="#000000" stroke="#000000" stroke-miterlimit="10" pointer-events="none"/><path d="M 187 79 L 188 83" fill="none" stroke="#000000" stroke-miterlimit="10" pointer-events="none"/><path d="M 189 88 L 184 82 L 188 83 L 191 80 Z" fill="#000000" stroke="#000000" stroke-miterlimit="10" pointer-events="none"/><path d="M 112 219 L 111 219" fill="none" stroke="#000000" stroke-miterlimit="10" pointer-events="none"/><path d="M 106 219 L 113 215 L 111 219 L 113 222 Z" fill="#000000" stroke="#000000" stroke-miterlimit="10" pointer-events="none"/><path d="M 22 119 L 22 115" fill="none" stroke="#000000" stroke-miterlimit="10" pointer-events="none"/><path d="M 22 110 L 25 117 L 22 115 L 18 117 Z" fill="#000000" stroke="#000000" stroke-miterlimit="10" pointer-events="none"/><rect x="100" y="3" width="24" height="30" fill="none" stroke="none" pointer-events="none"/><g fill="#000000" font-family="Helvetica" text-anchor="middle" font-size="18px"><text x="112" y="25">1</text></g><rect x="2" y="172" width="30" height="30" fill="none" stroke="none" pointer-events="none"/><g fill="#000000" font-family="Helvetica" text-anchor="middle" font-size="18px"><text x="17" y="194">3</text></g><rect x="195" y="169" width="28" height="33" fill="none" stroke="none" pointer-events="none"/><g fill="#000000" font-family="Helvetica" text-anchor="middle" font-size="18px"><text x="208" y="192">2</text></g><ellipse cx="356" cy="129" rx="90" ry="90" fill="#ffffff" stroke="#000000" pointer-events="none"/><ellipse cx="356" cy="39" rx="6.25" ry="6.25" fill="#000000" stroke="#000000" pointer-events="none"/><ellipse cx="356" cy="219" rx="6.25" ry="6.25" fill="#000000" stroke="#000000" pointer-events="none"/><path d="M 444 119 L 445 123" fill="none" stroke="#000000" stroke-miterlimit="10" pointer-events="none"/><path d="M 447 128 L 442 122 L 445 123 L 448 120 Z" fill="#000000" stroke="#000000" stroke-miterlimit="10" pointer-events="none"/><path d="M 265 129 L 265 125" fill="none" stroke="#000000" stroke-miterlimit="10" pointer-events="none"/><path d="M 265 120 L 269 127 L 265 125 L 262 127 Z" fill="#000000" stroke="#000000" stroke-miterlimit="10" pointer-events="none"/><rect x="344" y="3" width="24" height="30" fill="none" stroke="none" pointer-events="none"/><g fill="#000000" font-family="Helvetica" text-anchor="middle" font-size="18px"><text x="356" y="25">4</text></g><rect x="340" y="229" width="28" height="33" fill="none" stroke="none" pointer-events="none"/><g fill="#000000" font-family="Helvetica" text-anchor="middle" font-size="18px"><text x="354" y="252">5</text></g></g></svg>